<svg xmlns="http://www.w3.org/2000/svg" viewBox="0 0 225 225">
  <title>Asset 23Lebna-Lavendr</title>
  <rect width="225" height="225" fill="none" />
  <g id="Layer_2" data-name="Layer 2">
    <g id="fx">
      <circle cx="112.5" cy="112.5" r="105" fill="none" stroke="gray" stroke-miterlimit="10" stroke-width="15" />
      <path fill="gray"
        d="M137.59,118.37a15.48,15.48,0,0,0-8.45-6.3v-.73a15.55,15.55,0,0,0,5.82-7,27.68,27.68,0,0,0,1.89-10.89q0-9.91-5.26-14.56T115,74.26H84.35v76.48H119q10.52,0,16.09-5.57t5.57-16A19.07,19.07,0,0,0,137.59,118.37ZM120,87.6q1.83,2.33,1.83,8.56c0,4-.63,6.78-1.9,8.32s-3.53,2.33-6.79,2.33H99.41V85.27h13.82C116.5,85.27,118.74,86.05,120,87.6ZM123.33,137c-1.43,1.79-3.77,2.69-7,2.69H99.41V117.46h17q4.89,0,7,2.38c1.39,1.59,2.08,4.35,2.08,8.26Q125.47,134.34,123.33,137Z" />
    </g>
  </g>
</svg>