<svg xmlns="http://www.w3.org/2000/svg" viewBox="0 0 225 225">
  <title>Asset 22Lebna-Lavendr</title>
  <rect width="225" height="225" fill="none" />
  <g id="Layer_2" data-name="Layer 2">
    <g id="fx">
      <circle cx="112.5" cy="112.5" r="105" fill="none" stroke="gray" stroke-miterlimit="10" stroke-width="15" />
      <path fill="gray"
        d="M137.77,149.4a45.1,45.1,0,0,1-9.54,2.44,82.2,82.2,0,0,1-11.75.74,45.84,45.84,0,0,1-14.44-1.9,17.37,17.37,0,0,1-8.88-6.42q-3.24-4.53-4.59-12.3a117.46,117.46,0,0,1-1.34-19.4,113.11,113.11,0,0,1,1.41-19.64Q90,85.15,93.41,80.68a18.13,18.13,0,0,1,9.36-6.36,51.53,51.53,0,0,1,15.3-1.9q2.69,0,6.24.31c2.36.2,4.65.51,6.85.91a27.9,27.9,0,0,1,5.39,1.47l-2,12.24a54.71,54.71,0,0,0-6.3-1.22c-2.33-.33-4.55-.59-6.67-.8s-3.88-.3-5.27-.3q-7,0-10,1.71t-3,7.46v44.18a60.12,60.12,0,0,0,6.49,1.17,57.22,57.22,0,0,0,7,.42,60.75,60.75,0,0,0,10.1-.85,74.59,74.59,0,0,0,9.48-2.21Z" />
    </g>
  </g>
</svg>