<svg xmlns="http://www.w3.org/2000/svg" viewBox="0 0 225 225">
  <title>Asset 21Lebna-Lavendr</title>
  <rect width="225" height="225" fill="none" />
  <g id="Layer_2" data-name="Layer 2">
    <g id="fx">
      <circle cx="112.5" cy="112.5" r="105" fill="none" stroke="gray" stroke-miterlimit="10" stroke-width="15" />
      <path fill="gray"
        d="M82.33,74.26h28.89A64.45,64.45,0,0,1,127,75.85a17.6,17.6,0,0,1,9.55,5.81q3.42,4.22,4.77,11.63a111.24,111.24,0,0,1,1.35,19.27,111.44,111.44,0,0,1-1.35,19.21q-1.35,7.47-4.77,11.63a17.76,17.76,0,0,1-9.55,5.75,64.45,64.45,0,0,1-15.78,1.59H82.33ZM97.39,86.49v52H117c3.59,0,6.07-.63,7.46-1.89s2.08-3.49,2.08-6.67V95.06q0-4.77-2.08-6.67c-1.39-1.26-3.87-1.9-7.46-1.9Z" />
    </g>
  </g>
</svg>