<svg xmlns="http://www.w3.org/2000/svg" xmlns:xlink="http://www.w3.org/1999/xlink" viewBox="0 0 273.62 155.45">
  <defs>
    <clipPath id="clip-path" transform="translate(-134.32)">
      <polygon points="0 155.45 182.21 0 360.06 0 542.26 155.45 0 155.45" />
    </clipPath>
  </defs>
  <title>Asset 33Lebna-Lavendr</title>
  <g id="Layer_2" data-name="Layer 2">
    <g id="led">
      <g style="isolation: isolate;">
        <g style="clip-path: url(#clip-path);">
          <path fill="#0071bc"
            d="M187.74,148.55l31.48-84.71a.34.34,0,0,0-.13-.38,2,2,0,0,0-.65-.35,8.23,8.23,0,0,0-1.11-.27c-.43-.08-.94-.15-1.5-.2-13.81-1.19-25.9-2.77-36-4.63a135.87,135.87,0,0,1-23.47-6.08c-5.57-2.14-9.14-4.42-10.64-6.75s-1-4.53,1.5-6.8,6.42-4.21,11.83-6.07a145.67,145.67,0,0,1,19.31-4.88c7.34-1.4,15.69-2.63,24.82-3.66,8.95-1,18.72-1.82,29.14-2.42.41,0,.8-.05,1.14-.09s.64-.09.9-.14A3.34,3.34,0,0,0,235,21c.15-.06.24-.12.26-.19l7.43-20h57.44l7.57,20c0,.06.11.13.26.18a3.23,3.23,0,0,0,.6.17,8.19,8.19,0,0,0,.89.13c.34,0,.72.08,1.13.1,10.34.6,20,1.42,28.93,2.43,9.06,1,17.35,2.26,24.64,3.66a143.94,143.94,0,0,1,19.18,4.86c5.38,1.85,9.41,3.88,11.76,6s2.92,4.53,1.5,6.76-5,4.58-10.5,6.72a134.84,134.84,0,0,1-23.2,6.07c-10,1.86-22,3.44-35.62,4.64-.55,0-1.05.12-1.48.2a7.87,7.87,0,0,0-1.09.27,2.13,2.13,0,0,0-.65.34.34.34,0,0,0-.12.39l32,84.78H187.74M303.12,0h-63.5c-.46,0-.9,0-1.31,0l-1.09.08c-.31,0-.58.08-.76.12s-.31.1-.33.15l-9.18,20c-5.06.31-10,.66-14.81,1.07s-9.55.87-14.1,1.38-9,1.09-13.29,1.7-8.45,1.3-12.38,2Q166,27.71,160.54,29c-3.67.89-7,1.83-10,2.81A65.37,65.37,0,0,0,142.7,35a26.4,26.4,0,0,0-5.48,3.41A8.21,8.21,0,0,0,134.53,42a4.58,4.58,0,0,0,.47,3.74,12.25,12.25,0,0,0,3.91,3.8,41.18,41.18,0,0,0,7.62,3.77A101.83,101.83,0,0,0,157,56.7c4.06,1.09,8.61,2.13,13.62,3.09s10.62,1.88,16.59,2.7,12.5,1.58,19.34,2.22L166.54,152a1.24,1.24,0,0,0,.17,1.35,3.89,3.89,0,0,0,1.65,1.12,13.32,13.32,0,0,0,2.87.75,24.52,24.52,0,0,0,3.82.28H368.66a24.52,24.52,0,0,0,3.82-.28,13.48,13.48,0,0,0,2.87-.75A4,4,0,0,0,377,153.3a1.26,1.26,0,0,0,.16-1.35L336.52,64.63c6.77-.65,13.17-1.4,19.15-2.23s11.39-1.73,16.41-2.71,9.45-2,13.46-3.07a99.65,99.65,0,0,0,10.38-3.36,40.27,40.27,0,0,0,7.52-3.76,11.8,11.8,0,0,0,3.84-3.78,4.56,4.56,0,0,0,.45-3.72,8.35,8.35,0,0,0-2.68-3.62,26.21,26.21,0,0,0-5.46-3.4,64.15,64.15,0,0,0-7.81-3.1c-2.94-1-6.25-1.91-9.9-2.8s-7.5-1.71-11.74-2.5q-5.85-1.08-12.28-2t-13.21-1.7q-6.78-.76-14-1.38c-4.77-.41-9.69-.77-14.72-1.08l-9.31-20s-.14-.1-.33-.15-.45-.08-.77-.12L304.42,0c-.4,0-.84,0-1.3,0"
            transform="translate(-134.32)" />
        </g>
      </g>
    </g>
  </g>
</svg>