<svg xmlns="http://www.w3.org/2000/svg" viewBox="0 0 187.13 211.4"><defs><style>.cls-1{fill:#29abe2;}</style></defs><title>Asset 25Lebna-Lavendr</title><g id="Layer_2" data-name="Layer 2"><g id="color_wheel" data-name="color wheel"><path class="cls-1" d="M62.69,30.42a9.65,9.65,0,0,0-2.39.32,29.3,29.3,0,0,0-4.22,1.56,93.42,93.42,0,1,0,91.15,9,76.84,76.84,0,0,0-19.87-10.38,10,10,0,0,0-3-.5,7.08,7.08,0,0,0-6.88,4.77c-1.59,4.34.1,7.46,4,9.55,1.75.95,3.63,1.67,5.42,2.56,29.11,14.56,43.69,38.33,44.7,63,0,28.45-8.18,48.45-22.42,62.66a78.23,78.23,0,0,1-116-5.62C5.79,134.31,10.66,84.79,43.84,57.69c6.65-5.44,14.06-9.44,21.84-13,4.19-1.89,5.53-5.61,4-9.47a7.3,7.3,0,0,0-7-4.84Z"/><path class="cls-1" d="M100.29,8.78h0m0,107.5h0M93.56,0c-4.66,0-7.27,3.21-7.29,9.14,0,12.16,0,24.31,0,36.46v67.92c0,.67,0,1.33,0,2,0,6.37,2.59,9.87,7.23,10h.14c4.57,0,7.27-3.57,7.28-9.75q0-26.48,0-52.94,0-26.72,0-53.44c0-6.07-2.54-9.28-7.21-9.34Z"/></g></g></svg>