<?xml version="1.0" encoding="UTF-8"?>
<!DOCTYPE svg PUBLIC "-//W3C//DTD SVG 1.1//EN" "http://www.w3.org/Graphics/SVG/1.1/DTD/svg11.dtd">
<svg xmlns="http://www.w3.org/2000/svg" version="1.1" width="512px" height="512px"
  style="shape-rendering:geometricPrecision; text-rendering:geometricPrecision; image-rendering:optimizeQuality; fill-rule:evenodd; clip-rule:evenodd"
  xmlns:xlink="http://www.w3.org/1999/xlink">
  <g>
    <path style="opacity:0.961" fill="#000000"
      d="M 491.5,-0.5 C 494.5,-0.5 497.5,-0.5 500.5,-0.5C 505.199,1.68521 508.865,5.01855 511.5,9.5C 511.5,13.1667 511.5,16.8333 511.5,20.5C 444.777,180.963 378.277,341.63 312,502.5C 310.129,506.994 306.962,509.994 302.5,511.5C 299.5,511.5 296.5,511.5 293.5,511.5C 288.463,508.956 284.963,504.956 283,499.5C 256.367,435.571 229.2,371.905 201.5,308.5C 136.5,281 71.5,253.5 6.5,226C 3.25432,224.258 0.920984,221.758 -0.5,218.5C -0.5,214.833 -0.5,211.167 -0.5,207.5C 1.25495,204.515 3.58828,202.015 6.5,200C 168.307,133.238 329.974,66.4052 491.5,-0.5 Z M 435.5,55.5 C 360.854,130.812 285.854,205.812 210.5,280.5C 157.687,258.258 105.02,235.758 52.5,213C 180.15,160.396 307.817,107.896 435.5,55.5 Z M 454.5,79.5 C 402.437,206.183 350.271,332.85 298,459.5C 275.931,407.126 253.764,354.793 231.5,302.5C 305.521,227.812 379.854,153.479 454.5,79.5 Z" />
  </g>
</svg>