<?xml version="1.0" encoding="UTF-8"?>
<!DOCTYPE svg PUBLIC "-//W3C//DTD SVG 1.1//EN" "http://www.w3.org/Graphics/SVG/1.1/DTD/svg11.dtd">
<svg xmlns="http://www.w3.org/2000/svg" version="1.1" width="312px" height="435px"
  style="shape-rendering:geometricPrecision; text-rendering:geometricPrecision; image-rendering:optimizeQuality; fill-rule:evenodd; clip-rule:evenodd"
  xmlns:xlink="http://www.w3.org/1999/xlink">
  <g>
    <path style="opacity:0.921" fill="#0070bc"
      d="M 254.5,-0.5 C 255.5,-0.5 256.5,-0.5 257.5,-0.5C 274.998,31.1675 292.998,62.5008 311.5,93.5C 311.5,94.1667 311.5,94.8333 311.5,95.5C 201.245,159.228 135.412,254.228 114,380.5C 111.396,398.408 110.23,416.408 110.5,434.5C 73.5,434.5 36.5,434.5 -0.5,434.5C -0.5,425.833 -0.5,417.167 -0.5,408.5C 11.5036,253.297 78.8369,128.463 201.5,34C 218.89,21.9782 236.557,10.4782 254.5,-0.5 Z M 250.5,14.5 C 252.017,14.5106 253.184,15.1772 254,16.5C 267.967,41.2956 282.133,65.9623 296.5,90.5C 292.295,93.8589 287.795,96.8589 283,99.5C 266.667,75.8333 250.333,52.1667 234,28.5C 233.316,27.2161 233.483,26.0495 234.5,25C 240.07,21.7249 245.403,18.2249 250.5,14.5 Z M 222.5,32.5 C 239.832,56.5157 256.832,80.8491 273.5,105.5C 266.447,111.22 259.113,116.553 251.5,121.5C 231.966,99.4648 212.966,76.9648 194.5,54C 203.734,46.5868 213.067,39.4201 222.5,32.5 Z M 184.5,61.5 C 186.716,62.2026 188.549,63.5359 190,65.5C 207.123,86.9581 224.623,108.125 242.5,129C 235.667,135.167 228.833,141.333 222,147.5C 201.293,126.626 180.459,105.959 159.5,85.5C 167.247,76.7499 175.581,68.7499 184.5,61.5 Z M 149.5,93.5 C 171.384,112.88 192.551,133.213 213,154.5C 213.667,155.167 213.667,155.833 213,156.5C 207.351,162.983 201.517,169.317 195.5,175.5C 172.134,157.48 149.134,138.98 126.5,120C 134.003,110.999 141.669,102.166 149.5,93.5 Z M 118.5,128.5 C 141.577,146.465 164.41,164.798 187,183.5C 187.315,184.908 186.982,186.241 186,187.5C 181,193.833 176,200.167 171,206.5C 146.586,190.043 122.086,173.709 97.5,157.5C 104.265,147.627 111.265,137.96 118.5,128.5 Z M 90.5,167.5 C 115.784,183.147 140.784,199.314 165.5,216C 160.333,223.833 155.167,231.667 150,239.5C 124.333,225.833 98.6667,212.167 73,198.5C 77.7526,187.673 83.5859,177.339 90.5,167.5 Z M 66.5,208.5 C 92.2703,221.552 117.937,234.886 143.5,248.5C 144.583,249.365 144.749,250.365 144,251.5C 140.061,259.045 136.394,266.712 133,274.5C 105.473,263.647 78.3059,252.147 51.5,240C 55.8381,229.135 60.8381,218.635 66.5,208.5 Z M 46.5,251.5 C 74.3072,261.875 101.64,273.208 128.5,285.5C 125.501,294.151 122.001,302.484 118,310.5C 89.799,302.075 61.6323,293.575 33.5,285C 37.5425,273.703 41.8758,262.537 46.5,251.5 Z M 30.5,296.5 C 58.8333,304.5 87.1667,312.5 115.5,320.5C 113.496,329.516 111.329,338.516 109,347.5C 79.9015,342.783 50.7348,337.45 21.5,331.5C 23.894,319.656 26.894,307.989 30.5,296.5 Z M 18.5,342.5 C 47.8125,347.963 77.1458,353.296 106.5,358.5C 104.887,367.791 103.554,377.125 102.5,386.5C 72.7968,384.194 43.1301,381.527 13.5,378.5C 14.9805,366.47 16.6472,354.47 18.5,342.5 Z M 12.5,389.5 C 42.1809,392.123 71.8476,394.956 101.5,398C 100.2,406.734 99.5333,415.568 99.5,424.5C 69.8333,424.5 40.1667,424.5 10.5,424.5C 10.3978,412.775 11.0644,401.108 12.5,389.5 Z" />
  </g>
</svg>