<?xml version="1.0" encoding="UTF-8"?>
<!DOCTYPE svg PUBLIC "-//W3C//DTD SVG 1.1//EN" "http://www.w3.org/Graphics/SVG/1.1/DTD/svg11.dtd">
<svg xmlns="http://www.w3.org/2000/svg" version="1.1" width="313px" height="436px"
  style="shape-rendering:geometricPrecision; text-rendering:geometricPrecision; image-rendering:optimizeQuality; fill-rule:evenodd; clip-rule:evenodd"
  xmlns:xlink="http://www.w3.org/1999/xlink">
  <g>
    <path style="opacity:0.917" fill="#0070bc"
      d="M 54.5,-0.5 C 54.8333,-0.5 55.1667,-0.5 55.5,-0.5C 176.47,69.3525 256.303,171.686 295,306.5C 306.324,348.756 311.824,391.756 311.5,435.5C 274.833,435.5 238.167,435.5 201.5,435.5C 196.275,292.654 134.275,182.487 15.5,105C 10.2713,101.887 4.93801,99.0534 -0.5,96.5C -0.5,95.8333 -0.5,95.1667 -0.5,94.5C 18.0708,63.0323 36.4041,31.3656 54.5,-0.5 Z M 58.5,14.5 C 65.3068,18.4055 71.9735,22.5721 78.5,27C 61.6404,51.1853 44.8071,75.352 28,99.5C 23.2436,97.0776 18.7436,94.2443 14.5,91C 29.5576,65.7174 44.2242,40.2174 58.5,14.5 Z M 86.5,33.5 C 89.7143,34.4404 92.7143,35.9404 95.5,38C 102.539,43.5111 109.539,49.0111 116.5,54.5C 97.4782,77.0207 78.6449,99.6874 60,122.5C 52.5,117 45,111.5 37.5,106C 54.4719,82.2076 70.8052,58.0409 86.5,33.5 Z M 124.5,61.5 C 134.238,69.0627 143.571,77.2294 152.5,86C 131.028,106.471 109.862,127.305 89,148.5C 82.7638,141.593 75.9305,135.427 68.5,130C 87.4024,107.274 106.069,84.4403 124.5,61.5 Z M 159.5,93.5 C 169.351,101.661 177.517,110.994 184,121.5C 161.044,139.454 138.377,157.788 116,176.5C 109.833,169.667 103.667,162.833 97.5,156C 118.368,135.299 139.035,114.465 159.5,93.5 Z M 190.5,129.5 C 192.716,130.203 194.549,131.536 196,133.5C 200.615,140.45 205.615,147.116 211,153.5C 212.289,155.055 212.956,156.721 213,158.5C 189.167,174.333 165.333,190.167 141.5,206C 140.365,206.749 139.365,206.583 138.5,205.5C 133.858,199.024 129.025,192.691 124,186.5C 123.333,185.833 123.333,185.167 124,184.5C 146.356,166.302 168.523,147.969 190.5,129.5 Z M 219.5,167.5 C 226.778,176.973 233.111,187.139 238.5,198C 213.513,212.162 188.18,225.829 162.5,239C 161.365,239.749 160.365,239.583 159.5,238.5C 156.169,231.834 152.336,225.501 148,219.5C 147.018,218.241 146.685,216.908 147,215.5C 171.318,199.601 195.484,183.601 219.5,167.5 Z M 243.5,208.5 C 249.79,218.909 255.456,229.743 260.5,241C 233.833,252 207.167,263 180.5,274C 179.365,274.749 178.365,274.583 177.5,273.5C 174.154,265.307 170.154,257.474 165.5,250C 191.72,236.392 217.72,222.559 243.5,208.5 Z M 263.5,251.5 C 266.148,255.462 268.315,259.796 270,264.5C 272.111,271.503 274.611,278.337 277.5,285C 249.149,294.228 220.649,303.061 192,311.5C 189.112,302.725 185.945,294.058 182.5,285.5C 209.566,274.15 236.566,262.817 263.5,251.5 Z M 278.5,296.5 C 279.496,296.414 280.329,296.748 281,297.5C 284.622,308.988 287.456,320.655 289.5,332.5C 261.287,337.509 233.12,342.843 205,348.5C 203.893,348.415 202.893,348.081 202,347.5C 200.067,339.268 197.9,331.102 195.5,323C 195.833,322.5 196.167,322 196.5,321.5C 224.038,313.455 251.372,305.121 278.5,296.5 Z M 290.5,342.5 C 292.117,343.589 292.95,345.256 293,347.5C 295.045,358.099 296.545,368.766 297.5,379.5C 267.81,381.926 238.143,384.593 208.5,387.5C 207.912,378.383 206.579,369.383 204.5,360.5C 205,360.167 205.5,359.833 206,359.5C 234.349,354.085 262.516,348.418 290.5,342.5 Z M 287.5,390.5 C 291.437,390.207 295.27,390.54 299,391.5C 300.118,402.473 300.618,413.473 300.5,424.5C 270.833,424.5 241.167,424.5 211.5,424.5C 211.588,417.647 211.254,410.814 210.5,404C 210.6,401.698 211.267,399.698 212.5,398C 237.683,395.818 262.683,393.318 287.5,390.5 Z" />
  </g>
</svg>