<svg xmlns="http://www.w3.org/2000/svg" xmlns:xlink="http://www.w3.org/1999/xlink" viewBox="0 0 453.78 323.97"><defs><style>.cls-1{fill:none;}.cls-2{isolation:isolate;}.cls-3{clip-path:url(#clip-path);}.cls-4{fill:#0071bc;}</style><clipPath id="clip-path" transform="translate(0 -0.47)"><polygon class="cls-1" points="0 288.69 0 36.21 453.78 0 453.78 324.9 0 288.69"/></clipPath></defs><title>Asset 32Lebna-Lavendr</title><g id="Layer_2" data-name="Layer 2"><g id="led"><g class="cls-2"><g class="cls-3"><path class="cls-4" d="M44.43,32.67a3.57,3.57,0,0,0-1.52.48,4.36,4.36,0,0,0-1.24,1.07,5.11,5.11,0,0,0-.84,1.52,5.36,5.36,0,0,0-.31,1.8V287.36a5.36,5.36,0,0,0,.31,1.8,5.11,5.11,0,0,0,.84,1.52,4.39,4.39,0,0,0,1.24,1.08,3.87,3.87,0,0,0,1.52.48A3.38,3.38,0,0,0,46,292a3.64,3.64,0,0,0,1.25-.88,4.24,4.24,0,0,0,.84-1.39,5,5,0,0,0,.31-1.76v-251a5,5,0,0,0-.31-1.76,4,4,0,0,0-.84-1.39A3.54,3.54,0,0,0,46,32.9a3.25,3.25,0,0,0-1.53-.23" transform="translate(0 -0.47)"/><path class="cls-4" d="M3.71,35.92a3.34,3.34,0,0,0-1.44.46,4.23,4.23,0,0,0-1.19,1A5.32,5.32,0,0,0,0,40.66V284.24a5.26,5.26,0,0,0,1.08,3.23,4.23,4.23,0,0,0,1.19,1,3.36,3.36,0,0,0,1.44.47,3.11,3.11,0,0,0,1.46-.24,3.42,3.42,0,0,0,1.19-.86,4.36,4.36,0,0,0,.8-1.36,5,5,0,0,0,.29-1.71V40.08a5,5,0,0,0-.29-1.71A4.36,4.36,0,0,0,6.36,37a3.55,3.55,0,0,0-1.19-.86,3,3,0,0,0-1.46-.23" transform="translate(0 -0.47)"/><path class="cls-4" d="M129.44,25.88a4.17,4.17,0,0,0-1.69.52,4.83,4.83,0,0,0-1.38,1.13,5.55,5.55,0,0,0-.93,1.6,5.43,5.43,0,0,0-.34,1.9V293.88a5.41,5.41,0,0,0,.34,1.89,5.55,5.55,0,0,0,.93,1.6,5,5,0,0,0,1.38,1.14,4.31,4.31,0,0,0,1.69.51,3.8,3.8,0,0,0,1.69-.24,3.92,3.92,0,0,0,1.38-.93,4.4,4.4,0,0,0,.93-1.46,5,5,0,0,0,.34-1.85V30.36a5,5,0,0,0-.34-1.85,4.4,4.4,0,0,0-.93-1.46,3.76,3.76,0,0,0-1.38-.92,3.8,3.8,0,0,0-1.69-.25" transform="translate(0 -0.47)"/><path class="cls-4" d="M84.41,29.48a3.88,3.88,0,0,0-1.6.49,4.78,4.78,0,0,0-1.31,1.11,5.13,5.13,0,0,0-.87,1.55,5.41,5.41,0,0,0-.32,1.85v256a5.39,5.39,0,0,0,.32,1.84,5,5,0,0,0,.87,1.55,4.61,4.61,0,0,0,1.31,1.11,3.89,3.89,0,0,0,1.6.5,3.69,3.69,0,0,0,1.6-.24,3.6,3.6,0,0,0,1.31-.91,4.13,4.13,0,0,0,.89-1.42,5,5,0,0,0,.33-1.8V33.84a5,5,0,0,0-.33-1.8,4.13,4.13,0,0,0-.89-1.42,3.46,3.46,0,0,0-1.31-.9,3.41,3.41,0,0,0-1.6-.24" transform="translate(0 -0.47)"/><path class="cls-4" d="M223.81,18.35a5.11,5.11,0,0,0-1.88.55,5.57,5.57,0,0,0-1.53,1.21,5.4,5.4,0,0,0-1,1.69,5.35,5.35,0,0,0-.38,2V301.1a5.35,5.35,0,0,0,.38,2,5.57,5.57,0,0,0,2.56,2.9,4.92,4.92,0,0,0,1.88.55,4.54,4.54,0,0,0,1.89-.25,4.28,4.28,0,0,0,1.54-1,4.54,4.54,0,0,0,1-1.53,5,5,0,0,0,.38-1.95V23.05a5,5,0,0,0-.38-1.95,4.54,4.54,0,0,0-1-1.53,4.28,4.28,0,0,0-1.54-1,4.54,4.54,0,0,0-1.89-.25" transform="translate(0 -0.47)"/><path class="cls-4" d="M173.75,22.35a4.34,4.34,0,0,0-1.77.53,5,5,0,0,0-1.45,1.17,5.39,5.39,0,0,0-1,1.64,5.48,5.48,0,0,0-.36,1.94V297.27a5.43,5.43,0,0,0,.36,1.94,5.57,5.57,0,0,0,1,1.65A5.3,5.3,0,0,0,172,302a4.5,4.5,0,0,0,1.77.53,4,4,0,0,0,1.78-.25,4.17,4.17,0,0,0,1.46-.94,4.56,4.56,0,0,0,1-1.5,5.06,5.06,0,0,0,.36-1.9v-271A5.1,5.1,0,0,0,178,25a4.52,4.52,0,0,0-1-1.49,4.05,4.05,0,0,0-1.46-.95,4.19,4.19,0,0,0-1.78-.24" transform="translate(0 -0.47)"/><path class="cls-4" d="M329.21,9.94a5.82,5.82,0,0,0-2.11.59,6,6,0,0,0-2.87,3.08,5.43,5.43,0,0,0-.43,2.12V309.17a5.43,5.43,0,0,0,.43,2.12,5.94,5.94,0,0,0,2.87,3.08,5.82,5.82,0,0,0,2.11.59,5.27,5.27,0,0,0,2.11-.25,4.91,4.91,0,0,0,1.72-1,4.81,4.81,0,0,0,1.16-1.62,5,5,0,0,0,.43-2.06V14.9a5,5,0,0,0-.43-2.07A4.81,4.81,0,0,0,333,11.21a4.89,4.89,0,0,0-1.72-1,5.27,5.27,0,0,0-2.11-.26" transform="translate(0 -0.47)"/><path class="cls-4" d="M273.22,14.41a5.2,5.2,0,0,0-2,.57,5.6,5.6,0,0,0-1.62,1.24A5.91,5.91,0,0,0,268.54,18a5.46,5.46,0,0,0-.4,2.05V304.89a5.43,5.43,0,0,0,.4,2.05,5.75,5.75,0,0,0,2.7,3,5.19,5.19,0,0,0,2,.56,4.67,4.67,0,0,0,2-.25,4.47,4.47,0,0,0,1.63-1,4.74,4.74,0,0,0,1.1-1.57,5.08,5.08,0,0,0,.4-2V19.23a5,5,0,0,0-.4-2,4.78,4.78,0,0,0-1.1-1.58,4.61,4.61,0,0,0-1.63-1,4.67,4.67,0,0,0-2-.25" transform="translate(0 -0.47)"/><path class="cls-4" d="M447.67.49a6.77,6.77,0,0,0-2.38.64,6.68,6.68,0,0,0-1.94,1.37,6.47,6.47,0,0,0-1.3,1.91,5.61,5.61,0,0,0-.48,2.25V318.24a5.54,5.54,0,0,0,.48,2.25,6.34,6.34,0,0,0,1.3,1.91,6.91,6.91,0,0,0,1.94,1.38,6.76,6.76,0,0,0,2.38.63,6.16,6.16,0,0,0,2.37-.25,5.54,5.54,0,0,0,1.95-1.08,5.06,5.06,0,0,0,1.79-3.9V5.72A5.06,5.06,0,0,0,452,1.82,5.37,5.37,0,0,0,450,.75a6.16,6.16,0,0,0-2.37-.26" transform="translate(0 -0.47)"/><path class="cls-4" d="M384.64,5.52a6.25,6.25,0,0,0-4,1.94,6.09,6.09,0,0,0-1.22,1.84,5.6,5.6,0,0,0-.45,2.18V313.42a5.56,5.56,0,0,0,.45,2.18,6.13,6.13,0,0,0,1.22,1.85,6.25,6.25,0,0,0,1.81,1.32,6.07,6.07,0,0,0,2.23.61,5.71,5.71,0,0,0,2.24-.25,5.44,5.44,0,0,0,1.83-1,5,5,0,0,0,1.23-1.67,5.1,5.1,0,0,0,.46-2.12V10.6a5.14,5.14,0,0,0-.46-2.12,4.93,4.93,0,0,0-1.23-1.66,5.46,5.46,0,0,0-1.83-1.05,5.71,5.71,0,0,0-2.24-.25" transform="translate(0 -0.47)"/></g></g></g></g></svg>