<?xml version="1.0" encoding="UTF-8"?>
<!DOCTYPE svg PUBLIC "-//W3C//DTD SVG 1.1//EN" "http://www.w3.org/Graphics/SVG/1.1/DTD/svg11.dtd">
<svg xmlns="http://www.w3.org/2000/svg" version="1.1" width="309px" height="170"
  style="shape-rendering:geometricPrecision; text-rendering:geometricPrecision; image-rendering:optimizeQuality; fill-rule:evenodd; clip-rule:evenodd"
  xmlns:xlink="http://www.w3.org/1999/xlink">
  <g>
    <path style="opacity:0.997" fill="#0070bc"
      d="M 1.5,-0.5 C 3.5,-0.5 5.5,-0.5 7.5,-0.5C 7.78281,0.28913 8.28281,0.955796 9,1.5C 9.66667,78.8333 9.66667,156.167 9,233.5C 8.28281,234.044 7.78281,234.711 7.5,235.5C 5.5,235.5 3.5,235.5 1.5,235.5C 1.16667,234.5 0.5,233.833 -0.5,233.5C -0.5,156.167 -0.5,78.8333 -0.5,1.5C 0.5,1.16667 1.16667,0.5 1.5,-0.5 Z" />
  </g>
  <g>
    <path style="opacity:0.997" fill="#0070bc"
      d="M 50.5,-0.5 C 52.5,-0.5 54.5,-0.5 56.5,-0.5C 56.7828,0.28913 57.2828,0.955796 58,1.5C 58.6667,78.8333 58.6667,156.167 58,233.5C 57.2828,234.044 56.7828,234.711 56.5,235.5C 54.5,235.5 52.5,235.5 50.5,235.5C 50.2172,234.711 49.7172,234.044 49,233.5C 48.3333,156.167 48.3333,78.8333 49,1.5C 49.7172,0.955796 50.2172,0.28913 50.5,-0.5 Z" />
  </g>
  <g>
    <path style="opacity:0.997" fill="#0070bc"
      d="M 99.5,-0.5 C 101.5,-0.5 103.5,-0.5 105.5,-0.5C 105.783,0.28913 106.283,0.955796 107,1.5C 107.667,78.8333 107.667,156.167 107,233.5C 106.283,234.044 105.783,234.711 105.5,235.5C 103.5,235.5 101.5,235.5 99.5,235.5C 99.2172,234.711 98.7172,234.044 98,233.5C 97.3333,156.167 97.3333,78.8333 98,1.5C 98.7172,0.955796 99.2172,0.28913 99.5,-0.5 Z" />
  </g>
  <g>
    <path style="opacity:0.997" fill="#0070bc"
      d="M 201.5,-0.5 C 203.5,-0.5 205.5,-0.5 207.5,-0.5C 207.783,0.28913 208.283,0.955796 209,1.5C 209.667,78.8333 209.667,156.167 209,233.5C 208.283,234.044 207.783,234.711 207.5,235.5C 205.5,235.5 203.5,235.5 201.5,235.5C 201.217,234.711 200.717,234.044 200,233.5C 199.333,156.167 199.333,78.8333 200,1.5C 200.717,0.955796 201.217,0.28913 201.5,-0.5 Z" />
  </g>
  <g>
    <path style="opacity:0.997" fill="#0070bc"
      d="M 250.5,-0.5 C 252.5,-0.5 254.5,-0.5 256.5,-0.5C 256.783,0.28913 257.283,0.955796 258,1.5C 258.667,78.8333 258.667,156.167 258,233.5C 257.283,234.044 256.783,234.711 256.5,235.5C 254.5,235.5 252.5,235.5 250.5,235.5C 250.217,234.711 249.717,234.044 249,233.5C 248.333,156.167 248.333,78.8333 249,1.5C 249.717,0.955796 250.217,0.28913 250.5,-0.5 Z" />
  </g>
  <g>
    <path style="opacity:0.997" fill="#0070bc"
      d="M 299.5,-0.5 C 301.5,-0.5 303.5,-0.5 305.5,-0.5C 305.833,0.5 306.5,1.16667 307.5,1.5C 307.5,78.8333 307.5,156.167 307.5,233.5C 306.5,233.833 305.833,234.5 305.5,235.5C 303.5,235.5 301.5,235.5 299.5,235.5C 299.217,234.711 298.717,234.044 298,233.5C 297.333,156.167 297.333,78.8333 298,1.5C 298.717,0.955796 299.217,0.28913 299.5,-0.5 Z" />
  </g>
</svg>