<svg xmlns="http://www.w3.org/2000/svg" viewBox="0 0 1049.59 233.34"><defs><style>.cls-1{fill:#29abe2;}</style></defs><title>Asset 34Lebna-Lavendr</title><g id="Layer_2" data-name="Layer 2"><g id="led"><path class="cls-1" d="M524.8,232.67c-34.32,0-67.75-.76-99.78-2.18-33.32-1.47-66.37-3.72-98.12-6.68-34.3-3.2-68.35-7.36-100.43-12.5-36.09-5.78-71.12-13-102.12-21.86C87.68,179,59.3,167.05,41.49,154c-21.55-15.78-27.57-33.14-13.34-50.82C45.42,81.74,91.72,60.68,170.34,43.62,260.82,24,383.77,11.79,524.8,11.79S788.78,24,879.26,43.62c78.62,17.06,124.92,38.12,142.19,59.58,14.22,17.68,8.21,35-13.34,50.82-17.81,13-46.19,25-82.86,35.43-31,8.84-66,16.08-102.12,21.86-32.08,5.14-66.13,9.3-100.43,12.5-31.75,3-64.8,5.21-98.12,6.68-32,1.42-65.46,2.18-99.78,2.18M524.8,0C374.41,0,244.07,13.49,149.52,35.06,68.05,53.64,21.6,76.39,6,99.35c-12.77,18.75-4.5,37,19.59,53.5,19.76,13.53,50.18,25.85,88.79,36.6,32.5,9,68.88,16.43,106.13,22.3,33,5.21,67.93,9.42,103,12.66,32.41,3,66.08,5.25,100,6.73,32.55,1.43,66.51,2.2,101.36,2.2s68.8-.77,101.36-2.2c33.89-1.48,67.56-3.74,100-6.73,35.06-3.24,70-7.45,103-12.66,37.24-5.87,73.63-13.26,106.12-22.3,38.62-10.75,69-23.07,88.8-36.6,24.09-16.48,32.36-34.75,19.59-53.5-15.64-23-62.09-45.71-143.56-64.29C805.52,13.49,675.19,0,524.8,0"/><path class="cls-1" d="M524.8,228.94c-31.35,0-61.84-.73-90.92-2.09-30.14-1.41-59.79-3.55-87.95-6.34-30.2-3-59.66-6.87-86.77-11.59-30.11-5.25-58.33-11.72-81.92-19.47-27.3-9-46.27-18.95-55.42-29.54-10.73-12.42-7.87-25.61,11-38.53,22-15.07,64.8-29.22,128.71-40.25C332.46,68.89,423.25,61.52,524.8,61.52s192.33,7.37,263.28,19.61c63.91,11,106.73,25.18,128.71,40.25,18.86,12.92,21.72,26.11,11,38.53-9.15,10.59-28.12,20.56-55.42,29.54-23.59,7.75-51.81,14.22-81.92,19.47-27.11,4.72-56.58,8.58-86.77,11.59-28.16,2.79-57.81,4.93-88,6.34-29.07,1.36-59.56,2.09-90.91,2.09m0-175.48c-107.95,0-204.07,8.08-278.45,21.43-66.61,12-110.35,27.2-131.85,43.31-18.32,13.72-19.86,27.62-7.38,40.63,10.57,11,31.16,21.36,60.12,30.62,24.92,8,54.38,14.58,85.61,19.93,28,4.8,58.38,8.73,89.36,11.77,28.85,2.83,59.17,5,89.93,6.41,29.65,1.38,60.72,2.11,92.66,2.11s63-.73,92.66-2.11c30.76-1.42,61.07-3.58,89.93-6.41,31-3,61.32-7,89.36-11.77,31.22-5.35,60.69-12,85.61-19.93,28.95-9.26,49.55-19.59,60.12-30.62,12.47-13,10.94-26.91-7.39-40.63-21.5-16.11-65.24-31.35-131.85-43.31C728.86,61.54,632.75,53.46,524.8,53.46"/><path class="cls-1" d="M524.8,221.75c-25.65,0-50.5-.65-74-1.86-24.2-1.25-47.63-3.12-69.4-5.55-23-2.56-44.75-5.82-63.84-9.71-20.71-4.22-38.81-9.3-52.19-15.18-14.91-6.57-22.67-13.58-22.86-20.7-.2-7.95,9.06-16,28.1-23.44,21-8.25,53.34-15.58,95.76-21,45.17-5.81,99.39-9.2,158.43-9.2s113.26,3.39,158.43,9.2c42.42,5.46,74.73,12.79,95.75,21,19,7.47,28.3,15.49,28.1,23.44-.19,7.12-8,14.13-22.86,20.7-13.38,5.88-31.48,11-52.19,15.18-19.09,3.89-40.82,7.15-63.84,9.71-21.76,2.43-45.19,4.3-69.39,5.55-23.5,1.21-48.35,1.86-74,1.86m0-111.53c-30.47,0-60.2.87-88.52,2.54-27.83,1.65-53.83,4-77.47,7.1-22.87,3-43.21,6.49-60.68,10.49-16.7,3.82-30.58,8-41.48,12.53-10.33,4.26-17.61,8.63-22,13-4.19,4.13-5.84,8.26-5.16,12.32.65,3.83,3.36,7.59,8,11.24,4.35,3.45,10.39,6.79,18,10A211.21,211.21,0,0,0,280.24,198c8.89,2.5,18.7,4.83,29.26,7,10.13,2,21,3.94,32.49,5.66,11.09,1.65,22.81,3.16,35.07,4.51,11.9,1.31,24.05,2.44,36.32,3.39,12,.94,24.24,1.71,36.58,2.33,12.17.6,24.55,1.06,37.05,1.36s25,.46,37.79.46,25.39-.16,37.79-.46,24.88-.76,37-1.36c12.35-.62,24.57-1.39,36.58-2.33,12.28-1,24.42-2.08,36.32-3.39,12.27-1.35,24-2.86,35.07-4.51,11.49-1.72,22.37-3.61,32.49-5.66,10.57-2.14,20.38-4.47,29.26-7a211.21,211.21,0,0,0,24.86-8.51c7.58-3.22,13.62-6.56,18-10,4.61-3.65,7.33-7.41,8-11.24.68-4.06-1-8.19-5.16-12.32-4.44-4.37-11.72-8.74-22-13-10.91-4.5-24.79-8.71-41.48-12.53-17.47-4-37.81-7.53-60.68-10.49-23.64-3-49.63-5.45-77.46-7.1-28.32-1.67-58.06-2.54-88.52-2.54"/></g></g></svg>