<svg xmlns="http://www.w3.org/2000/svg" xmlns:xlink="http://www.w3.org/1999/xlink" viewBox="0 0 453.79 323.97"><defs><style>.cls-1{fill:none;}.cls-2{isolation:isolate;}.cls-3{clip-path:url(#clip-path);}.cls-4{fill:#0071bc;}</style><clipPath id="clip-path" transform="translate(0 -0.47)"><polygon class="cls-1" points="0 324.9 0 0 453.79 36.21 453.79 288.69 0 324.9"/></clipPath></defs><title>Asset 31Lebna-Lavendr</title><g id="Layer_2" data-name="Layer 2"><g id="led"><g class="cls-2"><g class="cls-3"><path class="cls-4" d="M69.14,5.52a5.66,5.66,0,0,0-2.23.25,5.32,5.32,0,0,0-1.82,1.05,5,5,0,0,0-1.24,1.66,5.13,5.13,0,0,0-.45,2.12V314.3a5.1,5.1,0,0,0,.45,2.12,5,5,0,0,0,1.24,1.67,5.3,5.3,0,0,0,1.82,1,5.85,5.85,0,0,0,2.23.26,6.22,6.22,0,0,0,2.23-.62,6.3,6.3,0,0,0,1.82-1.32,6,6,0,0,0,1.22-1.85,5.56,5.56,0,0,0,.45-2.18V11.49a5.52,5.52,0,0,0-.45-2.18,5.84,5.84,0,0,0-1.22-1.85,6.33,6.33,0,0,0-1.82-1.33,6.21,6.21,0,0,0-2.23-.61" transform="translate(0 -0.47)"/><path class="cls-4" d="M6.13.49A6.21,6.21,0,0,0,3.75.75,5.45,5.45,0,0,0,1.8,1.82,5,5,0,0,0,.48,3.53,5.13,5.13,0,0,0,0,5.72V319.18a5.07,5.07,0,0,0,1.8,3.91,5.77,5.77,0,0,0,2,1.07,6.22,6.22,0,0,0,2.38.25,6.76,6.76,0,0,0,2.37-.63,6.91,6.91,0,0,0,1.94-1.38,6.53,6.53,0,0,0,1.3-1.91,5.7,5.7,0,0,0,.47-2.25V6.66a5.78,5.78,0,0,0-.47-2.25A6.57,6.57,0,0,0,8.5,1.13,6.77,6.77,0,0,0,6.13.49" transform="translate(0 -0.47)"/><path class="cls-4" d="M180.56,14.41a4.81,4.81,0,0,0-2,.25,4.85,4.85,0,0,0-1.63,1,4.78,4.78,0,0,0-1.1,1.58,5,5,0,0,0-.4,2V305.67a5.08,5.08,0,0,0,.4,2,4.74,4.74,0,0,0,1.1,1.57,4.55,4.55,0,0,0,1.63,1,4.65,4.65,0,0,0,2,.25,5.19,5.19,0,0,0,2-.56,5.77,5.77,0,0,0,1.61-1.25,5.5,5.5,0,0,0,1.09-1.74,5.43,5.43,0,0,0,.4-2.05V20a5.48,5.48,0,0,0-.4-2.06,5.74,5.74,0,0,0-1.09-1.74A5.55,5.55,0,0,0,182.55,15a5.2,5.2,0,0,0-2-.57" transform="translate(0 -0.47)"/><path class="cls-4" d="M124.59,9.94a5.24,5.24,0,0,0-2.11.26,4.84,4.84,0,0,0-1.73,1,5,5,0,0,0-1.17,1.62,5.21,5.21,0,0,0-.43,2.07V310a5.16,5.16,0,0,0,.43,2.06,5,5,0,0,0,1.17,1.62,4.86,4.86,0,0,0,1.73,1,5.24,5.24,0,0,0,2.11.25,5.77,5.77,0,0,0,2.1-.59,6,6,0,0,0,1.72-1.28,6.2,6.2,0,0,0,1.15-1.8,5.6,5.6,0,0,0,.42-2.12V15.73a5.6,5.6,0,0,0-.42-2.12,6,6,0,0,0-1.15-1.79,5.89,5.89,0,0,0-1.72-1.29,5.77,5.77,0,0,0-2.1-.59" transform="translate(0 -0.47)"/><path class="cls-4" d="M280,22.35a4.21,4.21,0,0,0-1.78.24,4.1,4.1,0,0,0-1.45.95,4.34,4.34,0,0,0-1,1.49,5,5,0,0,0-.36,1.9V298a4.87,4.87,0,0,0,.36,1.9,4.39,4.39,0,0,0,1,1.5,4.22,4.22,0,0,0,1.45.94,4.06,4.06,0,0,0,1.78.25,4.59,4.59,0,0,0,1.78-.53,5.3,5.3,0,0,0,1.45-1.17,5.57,5.57,0,0,0,1-1.65,5.23,5.23,0,0,0,.36-1.94V27.63a5.26,5.26,0,0,0-.36-1.94,5.51,5.51,0,0,0-1-1.64,5,5,0,0,0-1.45-1.17,4.43,4.43,0,0,0-1.78-.53" transform="translate(0 -0.47)"/><path class="cls-4" d="M230,18.35a4.5,4.5,0,0,0-1.88.25,4.32,4.32,0,0,0-1.55,1,4.56,4.56,0,0,0-1,1.53,5.17,5.17,0,0,0-.38,1.95v278.8a5.17,5.17,0,0,0,.38,1.95,4.56,4.56,0,0,0,1,1.53,4.32,4.32,0,0,0,1.55,1,4.5,4.5,0,0,0,1.88.25,4.87,4.87,0,0,0,1.88-.55,5.25,5.25,0,0,0,1.53-1.21,5.61,5.61,0,0,0,1.41-3.69V23.8a5.61,5.61,0,0,0-1.41-3.69,5.42,5.42,0,0,0-1.53-1.21,5.05,5.05,0,0,0-1.88-.55" transform="translate(0 -0.47)"/><path class="cls-4" d="M369.38,29.48a3.41,3.41,0,0,0-1.6.24,3.58,3.58,0,0,0-1.31.9,4.23,4.23,0,0,0-.89,1.42,5,5,0,0,0-.32,1.8V291.06a5,5,0,0,0,.32,1.8,4.13,4.13,0,0,0,.89,1.42,3.6,3.6,0,0,0,1.31.91,3.69,3.69,0,0,0,1.6.24,3.89,3.89,0,0,0,1.6-.5,4.71,4.71,0,0,0,1.31-1.1,5.18,5.18,0,0,0,.87-1.56,5.36,5.36,0,0,0,.33-1.84V34.48a5.41,5.41,0,0,0-.33-1.85,5.13,5.13,0,0,0-.87-1.55A4.93,4.93,0,0,0,371,30a3.88,3.88,0,0,0-1.6-.49" transform="translate(0 -0.47)"/><path class="cls-4" d="M324.36,25.88a3.85,3.85,0,0,0-1.7.25,3.76,3.76,0,0,0-1.38.92,4.27,4.27,0,0,0-.94,1.46,5,5,0,0,0-.34,1.85V294.54a5,5,0,0,0,.34,1.85,4.27,4.27,0,0,0,.94,1.46,3.92,3.92,0,0,0,1.38.93,3.84,3.84,0,0,0,1.7.24,4.22,4.22,0,0,0,1.68-.51,5,5,0,0,0,1.38-1.14,5.3,5.3,0,0,0,.92-1.6,5.41,5.41,0,0,0,.34-1.89V31a5.43,5.43,0,0,0-.34-1.9,5.3,5.3,0,0,0-.92-1.6A4.83,4.83,0,0,0,326,26.4a4.08,4.08,0,0,0-1.68-.52" transform="translate(0 -0.47)"/><path class="cls-4" d="M450.07,35.92a3,3,0,0,0-1.45.23,3.42,3.42,0,0,0-1.18.86,4.2,4.2,0,0,0-.81,1.36,5,5,0,0,0-.29,1.72V284.82a5,5,0,0,0,.29,1.71,4.2,4.2,0,0,0,.81,1.36,3.3,3.3,0,0,0,1.18.86,3.09,3.09,0,0,0,1.45.24,3.35,3.35,0,0,0,1.45-.47,4.06,4.06,0,0,0,1.18-1,5.1,5.1,0,0,0,.8-1.47,5.37,5.37,0,0,0,.29-1.76V40.66a5.31,5.31,0,0,0-.29-1.75,5,5,0,0,0-.8-1.48,4.06,4.06,0,0,0-1.18-1,3.34,3.34,0,0,0-1.45-.46" transform="translate(0 -0.47)"/><path class="cls-4" d="M409.36,32.67a3.27,3.27,0,0,0-1.53.23,3.54,3.54,0,0,0-1.25.89,4.06,4.06,0,0,0-.85,1.39,5,5,0,0,0-.31,1.76V288a5,5,0,0,0,.31,1.76,4.26,4.26,0,0,0,.85,1.39,3.64,3.64,0,0,0,1.25.88,3.4,3.4,0,0,0,1.53.24,3.87,3.87,0,0,0,1.52-.48,4.39,4.39,0,0,0,1.24-1.08,5.11,5.11,0,0,0,.84-1.52,5.36,5.36,0,0,0,.31-1.8V37.54a5.36,5.36,0,0,0-.31-1.8,5.24,5.24,0,0,0-.84-1.52,4.36,4.36,0,0,0-1.24-1.07,3.57,3.57,0,0,0-1.52-.48" transform="translate(0 -0.47)"/></g></g></g></g></svg>